<svg height="496pt" viewBox="-80 0 496 496" width="496pt" xmlns="http://www.w3.org/2000/svg"><path d="m8 456c0 17.671875 14.328125 32 32 32h256c17.671875 0 32-14.328125 32-32v-216h-320zm32-168c0-8.835938 7.164062-16 16-16h224c8.835938 0 16 7.164062 16 16v152c0 8.835938-7.164062 16-16 16h-224c-8.835938 0-16-7.164062-16-16zm0 0" fill="#d80027"/><path d="m296 8h-256c-17.671875 0-32 14.328125-32 32v80h320v-80c0-17.671875-14.328125-32-32-32zm-24 72h-208c-13.253906 0-24-10.746094-24-24s10.746094-24 24-24h208c13.253906 0 24 10.746094 24 24s-10.746094 24-24 24zm0 0" fill="#d80027"/><path d="m8 240h320v-120h-320zm240-88v48zm-48 0v48zm-48 24v-24 48zm-48-24h24v24-24zm-48 24v-24 24h24v24-24zm0 0" fill="#414042"/><path d="m56 456h224c8.835938 0 16-7.164062 16-16v-152c0-8.835938-7.164062-16-16-16h-224c-8.835938 0-16 7.164062-16 16v152c0 8.835938 7.164062 16 16 16zm8-64v-80c0-8.835938 7.164062-16 16-16h176c8.835938 0 16 7.164062 16 16v104c0 8.835938-7.164062 16-16 16h-176c-8.835938 0-16-7.164062-16-16zm0 0" fill="#ffda44"/><path d="m80 432h176c8.835938 0 16-7.164062 16-16v-24h-208v24c0 8.835938 7.164062 16 16 16zm0 0" fill="#d1d3d4"/><path d="m272 312c0-8.835938-7.164062-16-16-16h-176c-8.835938 0-16 7.164062-16 16v80h208zm-176 64c-4.417969 0-8-3.582031-8-8s3.582031-8 8-8 8 3.582031 8 8-3.582031 8-8 8zm0-24c-4.417969 0-8-3.582031-8-8s3.582031-8 8-8 8 3.582031 8 8-3.582031 8-8 8zm0-24c-4.417969 0-8-3.582031-8-8s3.582031-8 8-8 8 3.582031 8 8-3.582031 8-8 8zm24 48c-4.417969 0-8-3.582031-8-8s3.582031-8 8-8 8 3.582031 8 8-3.582031 8-8 8zm0-24c-4.417969 0-8-3.582031-8-8s3.582031-8 8-8 8 3.582031 8 8-3.582031 8-8 8zm0-24c-4.417969 0-8-3.582031-8-8s3.582031-8 8-8 8 3.582031 8 8-3.582031 8-8 8zm24 48c-4.417969 0-8-3.582031-8-8s3.582031-8 8-8 8 3.582031 8 8-3.582031 8-8 8zm0-24c-4.417969 0-8-3.582031-8-8s3.582031-8 8-8 8 3.582031 8 8-3.582031 8-8 8zm0-24c-4.417969 0-8-3.582031-8-8s3.582031-8 8-8 8 3.582031 8 8-3.582031 8-8 8zm24 48c-4.417969 0-8-3.582031-8-8s3.582031-8 8-8 8 3.582031 8 8-3.582031 8-8 8zm0-24c-4.417969 0-8-3.582031-8-8s3.582031-8 8-8 8 3.582031 8 8-3.582031 8-8 8zm0-24c-4.417969 0-8-3.582031-8-8s3.582031-8 8-8 8 3.582031 8 8-3.582031 8-8 8zm24 48c-4.417969 0-8-3.582031-8-8s3.582031-8 8-8 8 3.582031 8 8-3.582031 8-8 8zm0-24c-4.417969 0-8-3.582031-8-8s3.582031-8 8-8 8 3.582031 8 8-3.582031 8-8 8zm0-24c-4.417969 0-8-3.582031-8-8s3.582031-8 8-8 8 3.582031 8 8-3.582031 8-8 8zm24 48c-4.417969 0-8-3.582031-8-8s3.582031-8 8-8 8 3.582031 8 8-3.582031 8-8 8zm0-24c-4.417969 0-8-3.582031-8-8s3.582031-8 8-8 8 3.582031 8 8-3.582031 8-8 8zm0-24c-4.417969 0-8-3.582031-8-8s3.582031-8 8-8 8 3.582031 8 8-3.582031 8-8 8zm24 48c-4.417969 0-8-3.582031-8-8s3.582031-8 8-8 8 3.582031 8 8-3.582031 8-8 8zm0-24c-4.417969 0-8-3.582031-8-8s3.582031-8 8-8 8 3.582031 8 8-3.582031 8-8 8zm0-24c-4.417969 0-8-3.582031-8-8s3.582031-8 8-8 8 3.582031 8 8-3.582031 8-8 8zm0 0" fill="#d1d3d4"/><g fill="#231f20"><path d="m104 320c0 4.417969-3.582031 8-8 8s-8-3.582031-8-8 3.582031-8 8-8 8 3.582031 8 8zm0 0"/><path d="m104 344c0 4.417969-3.582031 8-8 8s-8-3.582031-8-8 3.582031-8 8-8 8 3.582031 8 8zm0 0"/><path d="m104 368c0 4.417969-3.582031 8-8 8s-8-3.582031-8-8 3.582031-8 8-8 8 3.582031 8 8zm0 0"/><path d="m128 320c0 4.417969-3.582031 8-8 8s-8-3.582031-8-8 3.582031-8 8-8 8 3.582031 8 8zm0 0"/><path d="m128 344c0 4.417969-3.582031 8-8 8s-8-3.582031-8-8 3.582031-8 8-8 8 3.582031 8 8zm0 0"/><path d="m128 368c0 4.417969-3.582031 8-8 8s-8-3.582031-8-8 3.582031-8 8-8 8 3.582031 8 8zm0 0"/><path d="m152 320c0 4.417969-3.582031 8-8 8s-8-3.582031-8-8 3.582031-8 8-8 8 3.582031 8 8zm0 0"/><path d="m152 344c0 4.417969-3.582031 8-8 8s-8-3.582031-8-8 3.582031-8 8-8 8 3.582031 8 8zm0 0"/><path d="m152 368c0 4.417969-3.582031 8-8 8s-8-3.582031-8-8 3.582031-8 8-8 8 3.582031 8 8zm0 0"/><path d="m176 320c0 4.417969-3.582031 8-8 8s-8-3.582031-8-8 3.582031-8 8-8 8 3.582031 8 8zm0 0"/><path d="m176 344c0 4.417969-3.582031 8-8 8s-8-3.582031-8-8 3.582031-8 8-8 8 3.582031 8 8zm0 0"/><path d="m176 368c0 4.417969-3.582031 8-8 8s-8-3.582031-8-8 3.582031-8 8-8 8 3.582031 8 8zm0 0"/><path d="m200 320c0 4.417969-3.582031 8-8 8s-8-3.582031-8-8 3.582031-8 8-8 8 3.582031 8 8zm0 0"/><path d="m200 344c0 4.417969-3.582031 8-8 8s-8-3.582031-8-8 3.582031-8 8-8 8 3.582031 8 8zm0 0"/><path d="m200 368c0 4.417969-3.582031 8-8 8s-8-3.582031-8-8 3.582031-8 8-8 8 3.582031 8 8zm0 0"/><path d="m224 320c0 4.417969-3.582031 8-8 8s-8-3.582031-8-8 3.582031-8 8-8 8 3.582031 8 8zm0 0"/><path d="m224 344c0 4.417969-3.582031 8-8 8s-8-3.582031-8-8 3.582031-8 8-8 8 3.582031 8 8zm0 0"/><path d="m224 368c0 4.417969-3.582031 8-8 8s-8-3.582031-8-8 3.582031-8 8-8 8 3.582031 8 8zm0 0"/><path d="m248 320c0 4.417969-3.582031 8-8 8s-8-3.582031-8-8 3.582031-8 8-8 8 3.582031 8 8zm0 0"/><path d="m248 344c0 4.417969-3.582031 8-8 8s-8-3.582031-8-8 3.582031-8 8-8 8 3.582031 8 8zm0 0"/><path d="m248 368c0 4.417969-3.582031 8-8 8s-8-3.582031-8-8 3.582031-8 8-8 8 3.582031 8 8zm0 0"/><path d="m296 0h-256c-22.082031.0273438-39.9726562 17.917969-40 40v416c.0273438 22.082031 17.917969 39.972656 40 40h256c22.082031-.027344 39.972656-17.917969 40-40v-416c-.027344-22.082031-17.917969-39.9726562-40-40zm-256 16h256c13.253906 0 24 10.746094 24 24v72h-304v-72c0-13.253906 10.746094-24 24-24zm280 216h-304v-104h304zm-24 248h-256c-13.253906 0-24-10.746094-24-24v-208h304v208c0 13.253906-10.746094 24-24 24zm0 0"/><path d="m64 88h208c17.671875 0 32-14.328125 32-32s-14.328125-32-32-32h-208c-17.671875 0-32 14.328125-32 32s14.328125 32 32 32zm0-48h208c8.835938 0 16 7.164062 16 16s-7.164062 16-16 16h-208c-8.835938 0-16-7.164062-16-16s7.164062-16 16-16zm0 0"/><path d="m280 264h-224c-13.253906 0-24 10.746094-24 24v152c0 13.253906 10.746094 24 24 24h224c13.253906 0 24-10.746094 24-24v-152c0-13.253906-10.746094-24-24-24zm8 176c0 4.417969-3.582031 8-8 8h-224c-4.417969 0-8-3.582031-8-8v-152c0-4.417969 3.582031-8 8-8h224c4.417969 0 8 3.582031 8 8zm0 0"/><path d="m256 288h-176c-13.253906 0-24 10.746094-24 24v104c0 13.253906 10.746094 24 24 24h176c13.253906 0 24-10.746094 24-24v-104c0-13.253906-10.746094-24-24-24zm-176 16h176c4.417969 0 8 3.582031 8 8v72h-192v-72c0-4.417969 3.582031-8 8-8zm176 120h-176c-4.417969 0-8-3.582031-8-8v-16h192v16c0 4.417969-3.582031 8-8 8zm0 0"/><path d="m104 320c0 4.417969-3.582031 8-8 8s-8-3.582031-8-8 3.582031-8 8-8 8 3.582031 8 8zm0 0"/><path d="m104 344c0 4.417969-3.582031 8-8 8s-8-3.582031-8-8 3.582031-8 8-8 8 3.582031 8 8zm0 0"/><path d="m104 368c0 4.417969-3.582031 8-8 8s-8-3.582031-8-8 3.582031-8 8-8 8 3.582031 8 8zm0 0"/><path d="m128 320c0 4.417969-3.582031 8-8 8s-8-3.582031-8-8 3.582031-8 8-8 8 3.582031 8 8zm0 0"/><path d="m128 344c0 4.417969-3.582031 8-8 8s-8-3.582031-8-8 3.582031-8 8-8 8 3.582031 8 8zm0 0"/><path d="m128 368c0 4.417969-3.582031 8-8 8s-8-3.582031-8-8 3.582031-8 8-8 8 3.582031 8 8zm0 0"/><path d="m152 320c0 4.417969-3.582031 8-8 8s-8-3.582031-8-8 3.582031-8 8-8 8 3.582031 8 8zm0 0"/><path d="m152 344c0 4.417969-3.582031 8-8 8s-8-3.582031-8-8 3.582031-8 8-8 8 3.582031 8 8zm0 0"/><path d="m152 368c0 4.417969-3.582031 8-8 8s-8-3.582031-8-8 3.582031-8 8-8 8 3.582031 8 8zm0 0"/><path d="m176 320c0 4.417969-3.582031 8-8 8s-8-3.582031-8-8 3.582031-8 8-8 8 3.582031 8 8zm0 0"/><path d="m176 344c0 4.417969-3.582031 8-8 8s-8-3.582031-8-8 3.582031-8 8-8 8 3.582031 8 8zm0 0"/><path d="m176 368c0 4.417969-3.582031 8-8 8s-8-3.582031-8-8 3.582031-8 8-8 8 3.582031 8 8zm0 0"/><path d="m200 320c0 4.417969-3.582031 8-8 8s-8-3.582031-8-8 3.582031-8 8-8 8 3.582031 8 8zm0 0"/><path d="m200 344c0 4.417969-3.582031 8-8 8s-8-3.582031-8-8 3.582031-8 8-8 8 3.582031 8 8zm0 0"/><path d="m200 368c0 4.417969-3.582031 8-8 8s-8-3.582031-8-8 3.582031-8 8-8 8 3.582031 8 8zm0 0"/><path d="m224 320c0 4.417969-3.582031 8-8 8s-8-3.582031-8-8 3.582031-8 8-8 8 3.582031 8 8zm0 0"/><path d="m224 344c0 4.417969-3.582031 8-8 8s-8-3.582031-8-8 3.582031-8 8-8 8 3.582031 8 8zm0 0"/><path d="m224 368c0 4.417969-3.582031 8-8 8s-8-3.582031-8-8 3.582031-8 8-8 8 3.582031 8 8zm0 0"/><path d="m248 320c0 4.417969-3.582031 8-8 8s-8-3.582031-8-8 3.582031-8 8-8 8 3.582031 8 8zm0 0"/><path d="m248 344c0 4.417969-3.582031 8-8 8s-8-3.582031-8-8 3.582031-8 8-8 8 3.582031 8 8zm0 0"/><path d="m248 368c0 4.417969-3.582031 8-8 8s-8-3.582031-8-8 3.582031-8 8-8 8 3.582031 8 8zm0 0"/></g><path d="m56 192c-4.417969 0-8 3.582031-8 8s3.582031 8 8 8h24c4.417969 0 8-3.582031 8-8v-24c0-4.417969-3.582031-8-8-8h-16v-8h16c4.417969 0 8-3.582031 8-8s-3.582031-8-8-8h-24c-4.417969 0-8 3.582031-8 8v24c0 4.417969 3.582031 8 8 8h16v8zm0 0" fill="#c2fb3b"/><path d="m104 208c4.417969 0 8-3.582031 8-8v-16h16c4.417969 0 8-3.582031 8-8v-24c0-4.417969-3.582031-8-8-8h-24c-4.417969 0-8 3.582031-8 8v48c0 4.417969 3.582031 8 8 8zm8-48h8v8h-8zm0 0" fill="#c2fb3b"/><path d="m152 208h24c4.417969 0 8-3.582031 8-8s-3.582031-8-8-8h-16v-8h8c4.417969 0 8-3.582031 8-8s-3.582031-8-8-8h-8v-8h16c4.417969 0 8-3.582031 8-8s-3.582031-8-8-8h-24c-4.417969 0-8 3.582031-8 8v48c0 4.417969 3.582031 8 8 8zm0 0" fill="#c2fb3b"/><path d="m200 208h24c4.417969 0 8-3.582031 8-8s-3.582031-8-8-8h-16v-40c0-4.417969-3.582031-8-8-8s-8 3.582031-8 8v48c0 4.417969 3.582031 8 8 8zm0 0" fill="#c2fb3b"/><path d="m248 208h24c4.417969 0 8-3.582031 8-8s-3.582031-8-8-8h-16v-40c0-4.417969-3.582031-8-8-8s-8 3.582031-8 8v48c0 4.417969 3.582031 8 8 8zm0 0" fill="#c2fb3b"/></svg>