<!--?xml version="1.0" encoding="utf-8"?-->
<!-- Generator: Adobe Illustrator 18.1.1, SVG Export Plug-In . SVG Version: 6.00 Build 0)  -->

<svg version="1.1" id="_x31_0" xmlns="http://www.w3.org/2000/svg" xmlns:xlink="http://www.w3.org/1999/xlink" x="0px" y="0px" viewBox="0 0 512 512" style="width: 256px; height: 256px; opacity: 1;" xml:space="preserve">
<style type="text/css">
	.st0{fill:#374149;}
</style>
<g>
	<path class="st0" d="M0,370.042v47.442h73.09l8.11,0.016c-0.078,0.714-0.16,1.507-0.16,2.222c0,12.562,10.16,22.718,22.722,22.718
		c12.481,0,22.641-10.156,22.641-22.718c0-0.719,0-1.52-0.082-2.238h16.891l1.75,0.016c-0.078,0.714-0.082,1.507-0.082,2.222
		c0,12.562,10.16,22.718,22.64,22.718c12.563,0,22.723-10.156,22.723-22.718c0-0.719,0-1.52-0.082-2.238h131.359h0.242
		c0,0.718-0.082,1.519-0.082,2.238c0,12.562,10.16,22.718,22.722,22.718c12.477,0,22.641-10.156,22.641-22.718
		c0-0.719,0-1.52-0.082-2.238h16.887l1.754,0.016c-0.078,0.714-0.082,1.507-0.082,2.222c0,12.562,10.161,22.718,22.641,22.718
		c12.562,0,22.719-10.156,22.719-22.718c0-0.719-0.078-1.52-0.078-2.238h80.793h0.246l0,0H512v-47.442H0z" style="fill: rgb(142, 91, 162);"></path>
	<path class="st0" d="M492,186.921H19.922C8.879,186.921,0,195.882,0,206.843v147.199h512V206.843
		C512,195.882,503.039,186.921,492,186.921z M479.282,236.843v79.84h-54.481v-97.121H462
		C471.519,219.562,479.282,227.324,479.282,236.843z M405.762,219.562v97.121h-87.121v-97.121H405.762z M299.519,316.683h-87.117
		v-97.121h87.117v96.984V316.683z M193.359,219.562v97.121H106.16v-97.121H193.359z M87.121,316.683h-54.48v-79.84
		c0-9.519,7.762-17.281,17.281-17.281h37.199v96.984V316.683z" style="fill: rgb(142, 91, 162);"></path>
	<path class="st0" d="M129.492,173.011c2.129,2.125,4.918,3.191,7.703,3.191c2.789,0,5.578-1.066,7.703-3.191
		c4.254-4.254,4.254-11.152,0-15.406l-34.722-34.726l34.722-34.722c4.254-4.258,4.254-11.153,0-15.406
		c-4.254-4.254-11.148-4.254-15.406,0l-49.91,49.91l-0.106,0.106l0,0l-0.114,0.113L129.492,173.011z" style="fill: rgb(142, 91, 162);"></path>
</g>
</svg>
